# Blender v3.2.1 OBJ File: 'texture2.blend'

o Cube.001
v 1.180700 -0.994711 -0.001258
v 1.901908 0.003876 -0.002075
v 0.003267 -2.611367 -0.000001
v 4.252638 0.009033 -0.004008
v 1.173445 1.002477 -0.001254
v 4.621077 -1.489702 -0.004357
v -0.000923 0.618539 -0.000327
v 4.982618 -0.988455 -0.004709
v 0.000265 0.000510 -0.000327
v 4.259534 -1.990949 -0.004005
v -1.173378 -1.001749 0.001107
v -1.176320 0.997865 0.001109
v -1.902488 -0.007190 0.001796
v -1.905660 1.996407 0.001795
v -3.081457 1.612813 0.002900
v -1.181456 2.998166 0.001109
v -3.078384 0.376314 0.002903
v -0.004924 2.619175 -0.000004
v -0.001802 1.383112 0.000001
v -1.907224 3.232223 0.001780
v -3.083257 3.612733 0.002904
v -3.808547 2.611851 0.003595
v -4.252752 -0.008322 0.004011
v -4.619997 1.490705 0.004354
v -4.981938 0.989747 0.004696
v -4.258056 1.991664 0.004012
v -1.904548 -1.243127 0.001796
v -3.080515 -1.623866 0.002910
v -3.806015 -0.623111 0.003587
v 1.906325 -1.995660 -0.001710
v 3.078673 -0.376979 -0.003049
v 3.082393 -1.612780 -0.003045
v 0.001449 -0.617519 -0.000004
v 1.178389 -2.994708 -0.001104
v 1.542243 -2.495138 -0.001448
v 0.004718 -1.375302 0.000002
v 1.898224 1.239070 -0.001826
v 3.072608 1.624664 -0.002931
v 1.907675 -3.231733 -0.001927
v 3.083673 -3.612785 -0.002826
v 3.802236 0.626915 -0.003619
v 1.907195 -2.613877 -0.001814
v 3.809302 -2.612146 -0.003606
vt 0.750000 0.383860
vt 0.875000 0.695913
vt 0.750000 0.616140
vt 0.941930 0.500000
vt 0.875000 0.304087
vt 0.625000 0.304087
vt 0.750000 0.000002
vt 0.500003 0.116140
vt 0.875000 0.304087
vt 0.999997 0.116140
vt 0.558070 0.500000
vt 0.625000 0.695913
vt 0.441930 0.500000
vt 0.375000 0.304087
vt 0.500000 0.116140
vt 0.375000 0.695913
vt 0.441930 0.500000
vt 0.500000 0.883860
vt 0.875000 0.695913
vt 0.750000 0.999998
vt 0.999997 0.883861
vt 0.500003 0.883861
vt 0.250000 0.383860
vt 0.125000 0.304087
vt 0.375000 0.304087
vt 0.250000 0.000002
vt 0.000003 0.116140
vt 0.058070 0.500000
vt 0.250000 0.616140
vt 0.125000 0.695913
vt 0.375000 0.304087
vt 0.441930 0.500000
vt 0.375000 0.695913
vt 1.000000 0.116140
vt 1.000000 0.500000
vt 0.941930 0.500000
vt 0.000000 0.116140
vt 0.000000 0.500000
vt 0.875000 0.304087
vt 1.000000 0.883860
vt 0.941930 0.500000
vt 0.999999 0.500000
vt 0.000000 0.883860
vt 0.000000 0.500000
vt 0.875000 0.695913
vt 0.125000 0.695913

vt 0.375000 0.695913
vt 0.250000 0.999998
vt 0.000003 0.883861
vt 0.499997 0.883861

vn -0.0009 0.0000 -1.0000
vn 0.0012 0.0000 1.0000
vn -0.0008 -0.0005 -1.0000
vn -0.0010 -0.0000 -1.0000
vn 0.0009 0.0000 1.0000
vn -0.0011 -0.0000 -1.0000
vn -0.0008 -0.0000 -1.0000
vn 0.0012 0.0005 1.0000
vn -0.0009 -0.0002 -1.0000
vn -0.0008 0.0002 -1.0000
vn -0.0009 0.0002 -1.0000
vn -0.0011 -0.0002 -1.0000
vn -0.0008 -0.0002 -1.0000
vn -0.0008 -0.0001 -1.0000
vn 0.0010 0.0000 1.0000
vn -0.0010 0.0001 -1.0000
vn -0.0009 0.0001 -1.0000
vn -0.0010 -0.0003 -1.0000
usemtl texture.002
s off
f 13/1/1 29/2/1 17/3/1
f 13/1/1 28/4/1 29/2/1
f 13/1/1 27/5/1 28/4/1
f 12/6/2 9/7/2 7/8/2
f 11/9/3 9/7/3 33/10/3
f 12/6/2 11/9/2 9/7/2
f 12/6/1 11/9/1 13/1/1
f 14/11/1 12/6/1 13/1/1
f 14/11/1 13/1/1 17/3/1
f 14/11/1 17/3/1 15/12/1
f 16/13/1 18/14/1 19/15/1
f 16/13/1 19/15/1 12/6/1
f 16/13/1 12/6/1 14/11/1
f 21/16/4 20/17/4 14/11/4
f 21/16/1 14/11/1 15/12/1
f 21/16/4 15/12/4 22/18/4
f 15/12/1 17/3/1 23/19/1
f 15/12/1 23/19/1 24/20/1
f 23/19/5 24/20/5 25/21/5
f 15/12/1 24/20/1 26/22/1
f 2/23/6 1/24/6 5/25/6
f 5/25/7 1/24/7 9/26/7
f 1/24/8 9/26/8 33/27/8
f 5/25/7 9/26/7 7/8/7
f 30/28/9 1/24/9 2/23/9
f 30/28/9 2/23/9 31/29/9
f 30/28/6 31/29/6 32/30/6
f 31/29/10 2/23/10 37/31/10
f 31/29/11 37/31/11 38/32/11
f 31/29/12 38/32/12 41/33/12
f 36/34/1 35/35/1 34/36/1
f 36/37/12 30/28/12 35/38/12
f 36/34/1 34/36/1 3/39/1
f 36/37/13 1/24/13 30/28/13
f 43/40/14 39/41/14 42/42/14
f 43/43/14 42/44/14 30/28/14
f 43/43/15 30/28/15 32/30/15
f 43/40/16 40/45/16 39/41/16
f 31/29/7 4/46/7 32/47/7
f 32/47/1 4/46/1 6/48/1
f 4/46/17 6/48/17 8/49/17
f 32/47/18 6/48/18 10/50/18
