# Blender v3.2.1 OBJ File: 'net_without_gluepieces.blend'
# www.blender.org
mtllib net_without_gluepieces.mtl
o Cube.002
v -1.234839 -2.614433 0.001796
v -2.418209 -4.227631 0.003587
v -2.412847 -2.991400 0.002903
v -1.244331 -4.614758 0.002910
v -0.513400 -3.617962 0.001796
v -1.233957 -1.374492 0.001109
v 0.303755 -1.494945 -0.000327
v -0.058798 -0.994429 -0.000327
v -0.061657 -2.994423 0.001107
v 0.666306 -1.995463 -0.000004
v -2.409656 -0.991407 0.001795
v -3.138778 -1.990418 0.002900
v -2.408439 0.244713 0.001109
v -1.232555 0.625710 -0.000003
v -0.506840 -0.374888 0.000001
v -4.310331 -0.369571 0.002904
v -3.133963 0.009903 0.001780
v -4.312943 -1.605615 0.003595
v -3.140201 -3.990420 0.004011
v -4.315066 -2.989599 0.004354
v -4.315498 -3.607629 0.004696
v -4.314634 -2.371569 0.004012
v 1.843985 -0.379621 -0.002075
v 1.843341 -1.611415 -0.001258
v 0.668963 0.004025 -0.001254
v 3.017437 -1.998626 -0.001710
v 3.021150 0.000002 -0.003049
v 3.747196 -1.000035 -0.003045
v 1.118323 0.619944 -0.001826
v 1.845129 1.619752 -0.002930
v 3.020598 1.237477 -0.003618
v 1.112313 -2.608099 0.000002
v 3.014403 -2.616708 -0.001448
v 3.011606 -3.234731 -0.001104
v 1.834321 -3.611376 -0.000001
v 4.921407 -1.385211 -0.003606
v 3.741722 -3.000270 -0.001927
v 3.379843 -2.499480 -0.001814
v 4.918377 -2.621256 -0.002826
v 3.019293 -0.999312 -0.002379
v -1.831271 -4.421194 0.003248
v 1.473317 -3.109738 0.000000
v 2.061960 -2.921415 -0.000551
v 1.653819 -3.360557 -0.000000
v 3.021150 -0.000044 -0.004579
v 3.747196 0.999993 -0.004583
v 3.747369 -0.999944 -0.003620
v 4.923034 -0.000059 -0.003271
v 4.922972 -0.618089 -0.002919
v 4.923092 0.617972 -0.003623
v 3.747283 0.000024 -0.004102
vt 0.750000 0.383860
vt 0.875000 0.695913
vt 0.750000 0.616140
vt 0.941930 0.500000
vt 0.908465 0.597957
vt 0.875000 0.304087
vt 0.625000 0.304087
vt 0.750000 0.000002
vt 0.500003 0.116140
vt 0.875000 0.304087
vt 0.999997 0.116140
vt 0.558070 0.500000
vt 0.625000 0.695913
vt 0.441930 0.500000
vt 0.375000 0.304087
vt 0.500000 0.116140
vt 0.375000 0.695913
vt 0.441930 0.500000
vt 0.500000 0.883860
vt 0.875000 0.695913
vt 0.750000 0.999998
vt 0.999997 0.883861
vt 0.500003 0.883861
vt 0.250000 0.383860
vt 0.125000 0.304087
vt 0.375000 0.304087
vt 0.250000 0.000002
vt 0.000003 0.116140
vt 0.058070 0.500000
vt 0.250000 0.616140
vt 0.154035 0.558070
vt 0.125000 0.695913
vt 0.375000 0.304087
vt 0.441930 0.500000
vt 0.375000 0.695913
vt 1.000000 0.116140
vt 1.000000 0.500000
vt 0.941930 0.500000
vt 0.970965 0.308070
vt 0.000000 0.116140
vt 0.000000 0.500000
vt 0.875000 0.304087
vt 0.906250 0.257100
vt 1.000000 0.883860
vt 0.941930 0.500000
vt 0.999999 0.500000
vt 0.000000 0.883860
vt 0.000000 0.500000
vt 0.875000 0.695913
vt 0.937500 0.210114
vt 0.250000 0.616140
vt 0.125000 0.695913
vt 0.250000 0.695913
vt 0.375000 0.695913
vt 0.250000 0.999998
vt 0.000003 0.883861
vt 0.499997 0.883861
vn -0.0008 -0.0006 -1.0000
vn 0.0010 0.0007 1.0000
vn -0.0003 -0.0009 -1.0000
vn 0.0008 0.0006 1.0000
vn -0.0008 -0.0005 -1.0000
vn -0.0007 -0.0007 -1.0000
vn -0.0007 -0.0005 -1.0000
vn -0.0006 -0.0005 -1.0000
vn 0.0007 0.0011 1.0000
vn -0.0007 -0.0006 -1.0000
vn -0.0008 -0.0007 -1.0000
vn -0.0009 -0.0007 -1.0000
vn -0.0008 -0.0004 -1.0000
vn -0.0007 -0.0010 -1.0000
vn -0.0009 -0.0004 -1.0000
vn 0.0008 0.0008 1.0000
vn -0.0006 -0.0006 -1.0000
vn -0.0007 0.0005 1.0000
vn -0.0008 0.0005 1.0000
vn -0.0006 0.0006 1.0000
usemtl Material.001
s 1
f 1/1/1 2/2/1 3/3/1
f 1/1/1 4/4/1 41/5/1 2/2/1
f 1/1/1 5/6/1 4/4/1
f 6/7/2 7/8/2 8/9/2
f 9/10/3 7/8/3 10/11/3
f 6/7/2 9/10/2 7/8/2
f 6/7/1 9/10/1 1/1/1
f 11/12/1 6/7/1 1/1/1
f 11/12/1 1/1/1 3/3/1
f 11/12/1 3/3/1 12/13/1
f 13/14/1 14/15/1 15/16/1
f 13/14/1 15/16/1 6/7/1
f 13/14/1 6/7/1 11/12/1
f 16/17/1 17/18/1 11/12/1
f 16/17/1 11/12/1 12/13/1
f 16/17/1 12/13/1 18/19/1
f 12/13/1 3/3/1 19/20/1
f 12/13/1 19/20/1 20/21/1
f 19/20/4 20/21/4 21/22/4
f 12/13/1 20/21/1 22/23/1
f 23/24/5 24/25/6 25/26/7
f 25/26/7 24/25/6 7/27/8
f 24/25/9 7/27/9 10/28/9
f 25/26/7 7/27/8 8/9/8
f 26/29/10 24/25/6 23/24/5
f 26/29/10 23/24/5 27/30/7 40/31/11
f 26/29/10 40/31/11 27/30/7 28/32/12
f 27/30/7 23/24/5 29/33/13
f 27/30/7 29/33/13 30/34/5
f 27/30/7 30/34/5 31/35/7
f 32/36/10 33/37/14 34/38/1 43/39/5
f 32/40/10 26/29/10 33/41/14
f 43/39/5 34/38/1 35/42/5 44/43/5
f 32/40/10 24/25/6 26/29/10
f 36/44/7 37/45/5 38/46/15
f 36/47/7 38/48/15 26/29/15
f 36/47/16 26/29/16 28/32/16
f 36/44/7 39/49/17 37/45/5
f 32/36/10 43/39/5 44/43/5 42/50/5
f 45/51/18 47/52/18 51/53/18 46/54/18
f 46/54/18 51/53/18 47/52/18 48/55/18
f 47/52/19 48/55/19 49/56/19
f 46/54/20 48/55/20 50/57/20
