# Blender v3.2.1 OBJ File: 'net.blend'
# www.blender.org
mtllib net2.mtl
o Cube.003
v 1.539386 0.002652 -1.120633
v 2.722761 0.005299 -2.733825
v 2.717396 0.004288 -1.497594
v 1.548883 0.004296 -3.120959
v 0.817950 0.002653 -2.124166
v 1.538498 0.001638 0.119308
v 0.000787 -0.000327 -0.001152
v 0.363339 -0.000326 0.499366
v 0.366205 0.001634 -1.500628
v -0.361761 -0.000005 -0.501671
v 2.714197 0.002652 0.502399
v 3.443321 0.004286 -0.496609
v 2.712975 0.001640 1.738519
v 1.537090 -0.000002 2.119513
v 0.811378 0.000001 1.118909
v 4.614870 0.004288 1.124244
v 3.438501 0.002635 1.503714
v 4.617485 0.005308 -0.111800
v 3.444751 0.005924 -2.496611
v 4.619613 0.006432 -1.495786
v 4.620047 0.006937 -2.113816
v 4.619179 0.005927 -0.877756
v -1.539447 -0.002931 1.114166
v -1.538798 -0.001788 -0.117628
v -0.364426 -0.001782 1.497818
v -2.712892 -0.002567 -0.504845
v -2.716611 -0.004434 1.493783
v -3.442654 -0.004432 0.493743
v -0.813788 -0.002680 2.113735
v -1.540597 -0.004313 3.113539
v -2.716064 -0.005330 2.731259
v -0.807766 0.000000 -1.114309
v -2.709855 -0.002141 -1.122926
v -2.707056 -0.001634 -1.740949
v -1.529771 -0.000002 -2.117590
v -4.616863 -0.005319 0.108562
v -3.437172 -0.002782 -1.506493
v -3.075296 -0.002671 -1.005700
v -4.613830 -0.004209 -1.127483
v -2.716611 -0.004434 1.493727
v -3.442654 -0.004432 2.493768
v -3.442835 -0.005921 0.493830
v -4.618495 -0.006435 1.493721
v -4.618436 -0.006950 0.875691
v -4.618551 -0.005921 2.111751
v -3.442744 -0.005176 1.493799
vt 0.750000 0.383860
vt 0.881152 0.772197
vt 0.750000 0.616140
vt 0.968999 0.497539
vt 0.892226 0.262254
vt 0.642226 0.262254
vt 0.750000 0.000002
vt 0.500007 0.000009
vt 0.892226 0.262254
vt 1.000001 0.000009
vt 0.558070 0.500000
vt 0.631152 0.772197
vt 0.441930 0.500000
vt 0.392225 0.262254
vt 0.500004 0.000009
vt 0.381152 0.772197
vt 0.441930 0.500000
vt 0.500001 0.999994
vt 0.881152 0.772197
vt 0.750000 0.999998
vt 0.999998 0.999995
vt 0.500004 0.999995
vt 0.250000 0.383860
vt 0.142225 0.262254
vt 0.392225 0.262254
vt 0.250000 0.000002
vt 0.000007 0.000009
vt 0.075295 0.500000
vt 0.250000 0.616140
vt 0.131152 0.772197
vt 0.392225 0.262254
vt 0.441930 0.500000
vt 0.381152 0.772197
vt 1.000004 0.000009
vt 1.000000 0.500000
vt 0.968999 0.497539
vt 0.000004 0.000009
vt 0.000000 0.500000
vt 0.890995 0.235185
vt 1.000001 0.999994
vt 0.968999 0.497539
vt 0.999999 0.500000
vt 0.000001 0.999994
vt 0.000000 0.500000
vt 0.881152 0.772197
vt 0.250000 0.616140
vt 0.131152 0.772197
vt 0.256152 0.772197
vt 0.381152 0.772197
vt 0.250000 0.999998
vt 0.000004 0.999995
vt 0.499998 0.999995
vn 0.0011 -1.0000 -0.0008
vn -0.0014 1.0000 0.0010
vn 0.0007 -1.0000 -0.0011
vn -0.0011 1.0000 0.0008
vn 0.0010 -1.0000 -0.0009
vn 0.0010 -1.0000 -0.0007
vn -0.0011 1.0000 0.0014
vn 0.0012 -1.0000 -0.0010
vn 0.0012 -1.0000 -0.0007
vn 0.0012 -1.0000 -0.0008
vn 0.0011 -1.0000 -0.0007
vn 0.0011 -1.0000 -0.0009
vn 0.0009 -1.0000 -0.0009
vn -0.0010 1.0000 -0.0007
vn -0.0011 1.0000 -0.0007
vn -0.0010 1.0000 -0.0008
vn 0.0011 -1.0000 0.0008
usemtl texture.003
s 1
f 1/1/1 2/2/1 3/3/1
f 1/1/1 4/4/1 2/2/1
f 1/1/1 5/5/1 4/4/1
f 6/6/2 7/7/2 8/8/2
f 9/9/3 7/7/3 10/10/3
f 6/6/2 9/9/2 7/7/2
f 6/6/1 9/9/1 1/1/1
f 11/11/1 6/6/1 1/1/1
f 11/11/1 1/1/1 3/3/1
f 11/11/1 3/3/1 12/12/1
f 13/13/1 14/14/1 15/15/1
f 13/13/1 15/15/1 6/6/1
f 13/13/1 6/6/1 11/11/1
f 16/16/1 17/17/1 11/11/1
f 16/16/1 11/11/1 12/12/1
f 16/16/1 12/12/1 18/18/1
f 12/12/1 3/3/1 19/19/1
f 12/12/1 19/19/1 20/20/1
f 19/19/4 20/20/4 21/21/4
f 12/12/1 20/20/1 22/22/1
f 23/23/1 24/24/5 25/25/1
f 25/25/1 24/24/5 7/26/6
f 24/24/7 7/26/7 10/27/7
f 25/25/1 7/26/6 8/8/6
f 26/28/1 24/24/5 23/23/1
f 26/28/1 23/23/1 27/29/1
f 26/28/1 27/29/1 28/30/8
f 27/29/1 23/23/1 29/31/9
f 27/29/1 29/31/9 30/32/10
f 27/29/1 30/32/10 31/33/11
f 32/34/12 33/35/11 34/36/1
f 32/37/12 26/28/1 33/38/11
f 32/34/12 34/36/1 35/39/1
f 32/37/12 24/24/5 26/28/1
f 36/40/12 37/41/11 38/42/9
f 36/43/12 38/44/9 26/28/1
f 36/43/12 26/28/1 28/30/8
f 36/40/12 39/45/13 37/41/11
f 40/46/14 42/47/15 46/48/14 41/49/16
f 41/49/16 46/48/14 42/47/15 43/50/16
f 42/47/17 43/50/17 44/51/17
f 41/49/16 43/50/16 45/52/16
o Plane.001
v -2.990667 0.000447 2.334352
v -3.436395 0.000447 2.485747
v -2.717283 0.000447 1.494906
v -2.723451 0.000447 1.967256
vt 0.500000 0.500000
vt 0.500000 0.500000
vt 0.500000 0.500000
vt 0.500000 0.500000
vn -0.0000 -1.0000 -0.0000
usemtl None
s 1
f 48/53/18 50/54/18 47/55/18
f 48/53/18 49/56/18 50/54/18
o Plane.002
v -2.428902 -0.033348 3.113085
v -2.709397 -0.033348 2.735043
v -1.546067 -0.033348 3.116555
v -1.997657 -0.033348 3.255186
v -0.817082 0.000447 1.639871
v -0.812344 0.000447 2.110584
v -1.529294 0.000447 1.118178
v -1.082458 0.000447 1.271442
v -0.084718 0.000447 -1.347314
v 0.361189 0.000447 -1.498177
v -0.359104 0.000447 -0.508195
v -0.352372 0.000447 -0.980537
v 1.084383 0.000447 0.281036
v 1.530655 0.000447 0.131250
v 0.807971 0.000447 1.119491
v 0.815845 0.000447 0.647166
v 0.089113 0.000447 1.346968
v -0.356847 0.000447 1.497678
v 0.363789 0.000447 0.507944
v 0.356893 0.000447 0.980283
v 3.898357 0.000447 -0.356880
v 3.449184 0.000447 -0.497723
v 4.614477 0.000447 -0.873195
v 4.330726 0.000447 -0.495520
v 4.890791 0.000445 0.735572
v 4.617311 0.000445 1.118719
v 4.622638 0.000447 -0.105560
v 4.893409 0.000445 0.281527
v 1.248722 0.000447 -1.502900
v 1.531355 0.000447 -1.126453
v 0.365882 0.000447 -1.501370
v 0.816680 0.000447 -1.642557
v 2.719475 0.000447 0.979091
v 2.715389 0.000447 0.508372
v 3.430964 0.000445 1.501769
v 2.984340 0.000447 1.347887
v 1.992841 0.000447 2.261824
v 1.543089 0.000447 2.122840
v 2.706820 0.000447 1.742552
v 2.424633 0.000445 2.121397
v 4.335878 0.000447 -2.494656
v 4.615814 0.000447 -2.116200
v 3.453049 0.000447 -2.499429
v 3.904844 0.000447 -2.637393
v 2.990896 0.000447 -1.884612
v 2.717118 0.000447 -1.501678
v 2.723397 0.000447 -2.725953
v 2.993866 0.000447 -2.338656
v -0.818396 0.000447 -0.640965
v -0.368666 0.000447 -0.501912
v -1.532453 0.000447 -0.121800
v -1.250209 0.000447 -0.500602
v 1.098643 0.000447 -2.969263
v 1.545458 0.000447 -3.117418
v 0.819171 0.000447 -2.131823
v 0.828769 0.000447 -2.604116
v -4.890339 0.000449 -0.738861
v -4.616972 0.000449 -1.122089
v -4.621938 0.000447 0.102192
v -4.892823 0.000449 -0.284814
v -3.893460 0.000449 -1.647367
v -3.444582 0.000449 -1.505587
v -4.610658 0.000449 -1.132551
v -4.326117 0.000449 -1.509631
v -2.718723 0.000447 -0.983722
v -2.713985 0.000447 -0.513008
v -3.430935 0.000449 -1.505415
v -2.984099 0.000447 -1.352151
vt 0.500000 0.500000
vt 0.500000 0.500000
vt 0.500000 0.500000
vt 0.500000 0.500000
vt 0.500000 0.500000
vt 0.500000 0.500000
vt 0.500000 0.500000
vt 0.500000 0.500000
vt 0.500000 0.500000
vt 0.500000 0.500000
vt 0.500000 0.500000
vt 0.500000 0.500000
vt 0.500000 0.500000
vt 0.500000 0.500000
vt 0.500000 0.500000
vt 0.500000 0.500000
vt 0.500000 0.500000
vt 0.500000 0.500000
vt 0.500000 0.500000
vt 0.500000 0.500000
vt 0.500000 0.500000
vt 0.500000 0.500000
vt 0.500000 0.500000
vt 0.500000 0.500000
vt 0.500000 0.500000
vt 0.500000 0.500000
vt 0.500000 0.500000
vt 0.500000 0.500000
vt 0.500000 0.500000
vt 0.500000 0.500000
vt 0.500000 0.500000
vt 0.500000 0.500000
vt 0.500000 0.500000
vt 0.500000 0.500000
vt 0.500000 0.500000
vt 0.500000 0.500000
vt 0.500000 0.500000
vt 0.500000 0.500000
vt 0.500000 0.500000
vt 0.500000 0.500000
vt 0.500000 0.500000
vt 0.500000 0.500000
vt 0.500000 0.500000
vt 0.500000 0.500000
vt 0.500000 0.500000
vt 0.500000 0.500000
vt 0.500000 0.500000
vt 0.500000 0.500000
vt 0.500000 0.500000
vt 0.500000 0.500000
vt 0.500000 0.500000
vt 0.500000 0.500000
vt 0.500000 0.500000
vt 0.500000 0.500000
vt 0.500000 0.500000
vt 0.500000 0.500000
vt 0.500000 0.500000
vt 0.500000 0.500000
vt 0.500000 0.500000
vt 0.500000 0.500000
vt 0.500000 0.500000
vt 0.500000 0.500000
vt 0.500000 0.500000
vt 0.500000 0.500000
vt 0.500000 0.500000
vt 0.500000 0.500000
vt 0.500000 0.500000
vt 0.500000 0.500000
vn -0.0000 -1.0000 -0.0000
usemtl None.001
s 1
f 52/57/19 54/58/19 51/59/19
f 52/57/19 53/60/19 54/58/19
usemtl None.008
f 56/61/19 58/62/19 55/63/19
f 56/61/19 57/64/19 58/62/19
usemtl None.016
f 60/65/19 62/66/19 59/67/19
f 60/65/19 61/68/19 62/66/19
usemtl None.015
f 64/69/19 66/70/19 63/71/19
f 64/69/19 65/72/19 66/70/19
usemtl None.014
f 68/73/19 70/74/19 67/75/19
f 68/73/19 69/76/19 70/74/19
usemtl None.013
f 72/77/19 74/78/19 71/79/19
f 72/77/19 73/80/19 74/78/19
usemtl None.017
f 76/81/19 78/82/19 75/83/19
f 76/81/19 77/84/19 78/82/19
usemtl None.018
f 80/85/19 82/86/19 79/87/19
f 80/85/19 81/88/19 82/86/19
usemtl None.019
f 84/89/19 86/90/19 83/91/19
f 84/89/19 85/92/19 86/90/19
usemtl None.020
f 88/93/19 90/94/19 87/95/19
f 88/93/19 89/96/19 90/94/19
usemtl None.021
f 92/97/19 94/98/19 91/99/19
f 92/97/19 93/100/19 94/98/19
usemtl None.022
f 96/101/19 98/102/19 95/103/19
f 96/101/19 97/104/19 98/102/19
usemtl None.023
f 100/105/19 102/106/19 99/107/19
f 100/105/19 101/108/19 102/106/19
usemtl None.024
f 104/109/19 106/110/19 103/111/19
f 104/109/19 105/112/19 106/110/19
usemtl None.025
f 108/113/19 110/114/19 107/115/19
f 108/113/19 109/116/19 110/114/19
usemtl None.026
f 112/117/19 114/118/19 111/119/19
f 112/117/19 113/120/19 114/118/19
usemtl None.027
f 116/121/19 118/122/19 115/123/19
f 116/121/19 117/124/19 118/122/19
o Plane.003_Plane.001
v -4.889688 0.000447 1.259996
v -4.619599 0.000447 0.879892
v -4.618842 0.000447 2.106935
v -4.889709 0.000447 1.714048
vt 0.500000 0.500000
vt 0.500000 0.500000
vt 0.500000 0.500000
vt 0.500000 0.500000
vn -0.0000 -1.0000 -0.0000
usemtl None.006
s 1
f 120/125/20 122/126/20 119/127/20
f 120/125/20 121/128/20 122/126/20
