# Blender v3.2.1 OBJ File: ''
# www.blender.org
mtllib net_12_15.mtl
o Cube.002
v 1.539386 0.000000 -1.120633
v 2.722761 0.000000 -2.733825
v 2.717396 0.000000 -1.497594
v 1.548883 0.000002 -3.120959
v 0.817950 0.000000 -2.124166
v 1.538498 -0.000000 0.119308
v 0.000787 0.000000 -0.001152
v 0.363339 -0.000000 0.499366
v 0.366205 0.000000 -1.500628
v -0.361761 0.000000 -0.501671
v 2.714197 -0.000000 0.502399
v 3.443321 0.000000 -0.496609
v 2.712975 -0.000000 1.738519
v 1.537090 -0.000000 2.119513
v 0.811378 -0.000000 1.118909
v 4.614870 -0.000000 1.124244
v 3.438501 -0.000000 1.503714
v 4.617485 0.000000 -0.111800
v 3.444751 0.000000 -2.496611
v 4.619613 0.000000 -1.495786
v 4.620047 0.000000 -2.113816
v 4.619179 0.000000 -0.877756
v -1.539447 -0.000000 1.114166
v -1.538798 0.000000 -0.117628
v -0.364426 -0.000000 1.497818
v -2.712892 0.000000 -0.504845
v -2.716613 -0.000000 1.493783
v -3.442654 -0.000000 0.493747
v -0.813788 -0.000000 2.113735
v -1.540597 -0.000002 3.113539
v -2.716064 -0.000000 2.731259
v -0.807766 0.000000 -1.114309
v -2.709855 0.000000 -1.122926
v -2.707056 0.000000 -1.740949
v -1.529771 0.000000 -2.117590
v -4.616863 -0.000000 0.108562
v -3.437172 0.000000 -1.506493
v -3.075296 0.000000 -1.005700
v -4.613830 0.000000 -1.127483
v -3.442844 -0.000000 2.493689
v -4.618499 -0.000000 1.493423
v -4.618325 -0.000000 0.875393
v -4.618670 -0.000000 2.111453
vt 0.750000 0.383860
vt 0.881152 0.843909
vt 0.750000 0.616140
vt 0.968999 0.497539
vt 0.892226 0.262254
vt 0.642226 0.180763
vt 0.750000 0.000002
vt 0.500007 0.000009
vt 0.892226 0.262254
vt 1.000001 0.000009
vt 0.558070 0.500000
vt 0.631152 0.843909
vt 0.441930 0.500000
vt 0.392225 0.180763
vt 0.500004 0.000009
vt 0.381152 0.843909
vt 0.441930 0.500000
vt 0.500001 0.999994
vt 0.881152 0.843909
vt 0.750000 0.999998
vt 0.999998 0.999995
vt 0.500004 0.999995
vt 0.250000 0.383860
vt 0.142225 0.180763
vt 0.392225 0.180763
vt 0.250000 0.000002
vt 0.000007 0.000009
vt 0.075295 0.500000
vt 0.250000 0.616140
vt 0.131152 0.843909
vt 0.392225 0.180763
vt 0.441930 0.500000
vt 0.381152 0.843909
vt 1.000004 0.000009
vt 1.000000 0.500000
vt 0.968999 0.497539
vt 0.000004 0.000009
vt 0.000000 0.500000
vt 0.891677 0.260930
vt 1.000001 0.999994
vt 0.968999 0.497539
vt 0.999999 0.500000
vt 0.000001 0.999994
vt 0.000000 0.500000
vt 0.881152 0.843909
vt 0.381152 0.843909
vt 0.250000 0.999998
vt 0.000004 0.999995
vt 0.499998 0.999995
vn 0.0010 -1.0000 -0.0008
vn 0.0011 -1.0000 -0.0008
vn 0.0009 -1.0000 -0.0007
vn -0.0013 1.0000 0.0009
vn 0.0007 -1.0000 -0.0011
vn 0.0010 -1.0000 -0.0007
vn -0.0009 1.0000 0.0007
vn 0.0010 -1.0000 -0.0009
vn -0.0011 1.0000 0.0014
vn 0.0011 -1.0000 -0.0010
vn 0.0012 -1.0000 -0.0007
vn 0.0012 -1.0000 -0.0008
vn 0.0011 -1.0000 -0.0007
vn 0.0011 -1.0000 -0.0009
vn 0.0009 -1.0000 -0.0009
vn -0.0010 1.0000 -0.0007
vn -0.0011 1.0000 -0.0007
vn -0.0009 1.0000 -0.0007
vn 0.0009 -1.0000 0.0007
usemtl texture.001
s 1
f 1/1/1 2/2/2 3/3/3
f 1/1/1 4/4/3 2/2/2
f 1/1/1 5/5/2 4/4/3
f 6/6/4 7/7/4 8/8/4
f 9/9/5 7/7/5 10/10/5
f 6/6/4 9/9/4 7/7/4
f 6/6/3 9/9/3 1/1/1
f 11/11/1 6/6/3 1/1/1
f 11/11/1 1/1/1 3/3/3
f 11/11/1 3/3/3 12/12/1
f 13/13/6 14/14/3 15/15/3
f 13/13/6 15/15/3 6/6/3
f 13/13/6 6/6/3 11/11/1
f 16/16/6 17/17/3 11/11/1
f 16/16/6 11/11/1 12/12/1
f 16/16/6 12/12/1 18/18/3
f 12/12/1 3/3/3 19/19/3
f 12/12/1 19/19/3 20/20/3
f 19/19/7 20/20/7 21/21/7
f 12/12/1 20/20/3 22/22/3
f 23/23/3 24/24/8 25/25/1
f 25/25/1 24/24/8 7/26/6
f 24/24/9 7/26/9 10/27/9
f 25/25/1 7/26/6 8/8/6
f 26/28/1 24/24/8 23/23/3
f 26/28/1 23/23/3 27/29/1
f 26/28/1 27/29/1 28/30/10
f 27/29/1 23/23/3 29/31/11
f 27/29/1 29/31/11 30/32/12
f 27/29/1 30/32/12 31/33/13
f 32/34/14 33/35/13 34/36/3
f 32/37/14 26/28/1 33/38/13
f 32/34/14 34/36/3 35/39/3
f 32/37/14 24/24/8 26/28/1
f 36/40/14 37/41/13 38/42/11
f 36/43/14 38/44/11 26/28/1
f 36/43/14 26/28/1 28/30/10
f 36/40/14 39/45/15 37/41/13
f 27/29/16 28/30/17 40/46/18
f 28/30/19 41/47/19 42/48/19
f 40/46/18 41/47/18 43/49/18
f 41/47/18 40/46/18 28/30/17
o Plane.003
v -3.436583 0.000447 2.485669
v -2.723543 0.000447 1.967310
v -2.990827 0.000447 2.334357
v -2.717287 0.000447 1.494961
vt 0.500000 0.500000
vt 0.500000 0.500000
vt 0.500000 0.500000
vt 0.500000 0.500000
vn 0.0000 -1.0000 -0.0000
usemtl None.002
s 1
f 44/50/20 45/51/20 46/52/20
f 44/50/20 47/53/20 45/51/20
o Plane.004
v -2.709397 -0.033348 2.735043
v -1.997657 -0.033350 3.255186
v -2.428902 -0.033350 3.113085
v -1.546067 -0.033350 3.116555
v -0.812344 0.000447 2.110584
v -1.082458 0.000447 1.271442
v -0.817082 0.000447 1.639871
v -1.529294 0.000447 1.118178
v 0.361189 0.000447 -1.498177
v -0.352372 0.000447 -0.980537
v -0.084718 0.000447 -1.347314
v -0.359104 0.000447 -0.508195
v 1.530655 0.000447 0.131250
v 0.815845 0.000447 0.647166
v 1.084383 0.000447 0.281036
v 0.807971 0.000447 1.119491
v -0.356847 0.000447 1.497678
v 0.356893 0.000447 0.980283
v 0.089113 0.000447 1.346968
v 0.363789 0.000447 0.507944
v 3.449184 0.000447 -0.497723
v 4.330726 0.000447 -0.495520
v 3.898357 0.000447 -0.356880
v 4.614477 0.000447 -0.873195
v 4.617311 0.000445 1.118719
v 4.893409 0.000445 0.281527
v 4.890791 0.000445 0.735572
v 4.622638 0.000447 -0.105560
v 1.531355 0.000447 -1.126453
v 0.816680 0.000447 -1.642557
v 1.248722 0.000447 -1.502900
v 0.365882 0.000447 -1.501370
v 2.715389 0.000447 0.508372
v 2.984340 0.000447 1.347887
v 2.719475 0.000447 0.979091
v 3.430964 0.000445 1.501769
v 1.543089 0.000447 2.122840
v 2.424633 0.000445 2.121397
v 1.992841 0.000447 2.261824
v 2.706820 0.000447 1.742552
v 4.615814 0.000447 -2.116200
v 3.904844 0.000447 -2.637393
v 4.335878 0.000447 -2.494656
v 3.453049 0.000447 -2.499429
v 2.717118 0.000447 -1.501678
v 2.993866 0.000447 -2.338656
v 2.990896 0.000447 -1.884612
v 2.723397 0.000447 -2.725953
v -0.368666 0.000447 -0.501912
v -1.250209 0.000447 -0.500602
v -0.818396 0.000447 -0.640965
v -1.532453 0.000447 -0.121800
v 1.545458 0.000449 -3.117418
v 0.828769 0.000447 -2.604116
v 1.098643 0.000447 -2.969263
v 0.819171 0.000447 -2.131823
v -4.616972 0.000449 -1.122089
v -4.892823 0.000449 -0.284814
v -4.890339 0.000449 -0.738861
v -4.621938 0.000447 0.102192
v -3.444582 0.000449 -1.505587
v -4.326117 0.000449 -1.509631
v -3.893460 0.000449 -1.647367
v -4.610658 0.000449 -1.132551
v -2.713985 0.000447 -0.513008
v -2.984099 0.000447 -1.352151
v -2.718723 0.000447 -0.983722
v -3.430935 0.000449 -1.505415
vt 0.500000 0.500000
vt 0.500000 0.500000
vt 0.500000 0.500000
vt 0.500000 0.500000
vt 0.500000 0.500000
vt 0.500000 0.500000
vt 0.500000 0.500000
vt 0.500000 0.500000
vt 0.500000 0.500000
vt 0.500000 0.500000
vt 0.500000 0.500000
vt 0.500000 0.500000
vt 0.500000 0.500000
vt 0.500000 0.500000
vt 0.500000 0.500000
vt 0.500000 0.500000
vt 0.500000 0.500000
vt 0.500000 0.500000
vt 0.500000 0.500000
vt 0.500000 0.500000
vt 0.500000 0.500000
vt 0.500000 0.500000
vt 0.500000 0.500000
vt 0.500000 0.500000
vt 0.500000 0.500000
vt 0.500000 0.500000
vt 0.500000 0.500000
vt 0.500000 0.500000
vt 0.500000 0.500000
vt 0.500000 0.500000
vt 0.500000 0.500000
vt 0.500000 0.500000
vt 0.500000 0.500000
vt 0.500000 0.500000
vt 0.500000 0.500000
vt 0.500000 0.500000
vt 0.500000 0.500000
vt 0.500000 0.500000
vt 0.500000 0.500000
vt 0.500000 0.500000
vt 0.500000 0.500000
vt 0.500000 0.500000
vt 0.500000 0.500000
vt 0.500000 0.500000
vt 0.500000 0.500000
vt 0.500000 0.500000
vt 0.500000 0.500000
vt 0.500000 0.500000
vt 0.500000 0.500000
vt 0.500000 0.500000
vt 0.500000 0.500000
vt 0.500000 0.500000
vt 0.500000 0.500000
vt 0.500000 0.500000
vt 0.500000 0.500000
vt 0.500000 0.500000
vt 0.500000 0.500000
vt 0.500000 0.500000
vt 0.500000 0.500000
vt 0.500000 0.500000
vt 0.500000 0.500000
vt 0.500000 0.500000
vt 0.500000 0.500000
vt 0.500000 0.500000
vt 0.500000 0.500000
vt 0.500000 0.500000
vt 0.500000 0.500000
vt 0.500000 0.500000
vn 0.0000 -1.0000 -0.0000
usemtl None.003
s 1
f 48/54/21 49/55/21 50/56/21
f 48/54/21 51/57/21 49/55/21
usemtl None.004
f 52/58/21 53/59/21 54/60/21
f 52/58/21 55/61/21 53/59/21
usemtl None.005
f 56/62/21 57/63/21 58/64/21
f 56/62/21 59/65/21 57/63/21
usemtl None.007
f 60/66/21 61/67/21 62/68/21
f 60/66/21 63/69/21 61/67/21
usemtl None.009
f 64/70/21 65/71/21 66/72/21
f 64/70/21 67/73/21 65/71/21
usemtl None.010
f 68/74/21 69/75/21 70/76/21
f 68/74/21 71/77/21 69/75/21
usemtl None.011
f 72/78/21 73/79/21 74/80/21
f 72/78/21 75/81/21 73/79/21
usemtl None.012
f 76/82/21 77/83/21 78/84/21
f 76/82/21 79/85/21 77/83/21
usemtl None.028
f 80/86/21 81/87/21 82/88/21
f 80/86/21 83/89/21 81/87/21
usemtl None.029
f 84/90/21 85/91/21 86/92/21
f 84/90/21 87/93/21 85/91/21
usemtl None.030
f 88/94/21 89/95/21 90/96/21
f 88/94/21 91/97/21 89/95/21
usemtl None.031
f 92/98/21 93/99/21 94/100/21
f 92/98/21 95/101/21 93/99/21
usemtl None.032
f 96/102/21 97/103/21 98/104/21
f 96/102/21 99/105/21 97/103/21
usemtl None.033
f 100/106/21 101/107/21 102/108/21
f 100/106/21 103/109/21 101/107/21
usemtl None.034
f 104/110/21 105/111/21 106/112/21
f 104/110/21 107/113/21 105/111/21
usemtl None.035
f 108/114/21 109/115/21 110/116/21
f 108/114/21 111/117/21 109/115/21
usemtl None.036
f 112/118/21 113/119/21 114/120/21
f 112/118/21 115/121/21 113/119/21
o Plane.003_Plane.002
v -4.619489 0.000447 0.879594
v -4.889754 0.000447 1.713700
v -4.889649 0.000447 1.259648
v -4.618960 0.000447 2.106637
vt 0.500000 0.500000
vt 0.500000 0.500000
vt 0.500000 0.500000
vt 0.500000 0.500000
vn -0.0000 -1.0000 -0.0000
usemtl None.037
s 1
f 116/122/22 117/123/22 118/124/22
f 116/122/22 119/125/22 117/123/22
