# Blender v3.2.1 OBJ File: 'net.blend'
# www.blender.org
mtllib net.mtl
o Cube.003
v 2.592643 0.002652 -2.614421
v 3.776018 0.005299 -4.227612
v 3.770653 0.004288 -2.991382
v 2.602141 0.004296 -4.614747
v 1.871207 0.002653 -3.617953
v 2.591756 0.001638 -1.374480
v 1.054044 -0.000327 -1.494939
v 1.416596 -0.000326 -0.994422
v 1.419462 0.001634 -2.994416
v 0.691496 -0.000005 -1.995459
v 3.767454 0.002652 -0.991389
v 4.496579 0.004286 -1.990397
v 3.766232 0.001640 0.244731
v 2.590348 -0.000002 0.625725
v 1.864636 0.000001 -0.374878
v 5.668127 0.004288 -0.369544
v 4.491758 0.002635 0.009926
v 5.670743 0.005308 -1.605587
v 4.498008 0.005924 -3.990399
v 5.672871 0.006432 -2.989573
v 5.673305 0.006937 -3.607603
v 5.672436 0.005927 -2.371543
v -0.486190 -0.002931 -0.379622
v -0.485541 -0.001788 -1.611416
v 0.688831 -0.001782 0.004030
v -1.659635 -0.002567 -1.998633
v -1.663353 -0.004434 -0.000004
v -2.389397 -0.004432 -1.000045
v 0.239470 -0.002680 0.619947
v -0.487340 -0.004313 1.619752
v -1.662807 -0.005330 1.237471
v 0.245491 0.000000 -2.608097
v -1.656597 -0.002141 -2.616714
v -1.653799 -0.001634 -3.234737
v -0.476514 -0.000002 -3.611378
v -3.563605 -0.005319 -1.385225
v -2.383915 -0.002782 -3.000280
v -2.022038 -0.002671 -2.499488
v -3.560573 -0.004209 -2.621270
v -1.663353 -0.004434 -0.000061
v -2.389397 -0.004432 0.999980
v -2.389578 -0.005921 -0.999958
v -3.565237 -0.006435 -0.000067
v -3.565178 -0.006950 -0.618096
v -3.565294 -0.005921 0.617964
v -2.389487 -0.005176 0.000011
vt 0.750000 0.383860
vt 0.881152 0.772197
vt 0.750000 0.616140
vt 0.968999 0.497539
vt 0.892226 0.262254
vt 0.642226 0.262254
vt 0.750000 0.000002
vt 0.500007 0.000009
vt 0.892226 0.262254
vt 1.000001 0.000009
vt 0.558070 0.500000
vt 0.631152 0.772197
vt 0.441930 0.500000
vt 0.392225 0.262254
vt 0.500004 0.000009
vt 0.381152 0.772197
vt 0.441930 0.500000
vt 0.500001 0.999994
vt 0.881152 0.772197
vt 0.750000 0.999998
vt 0.999998 0.999995
vt 0.500004 0.999995
vt 0.250000 0.383860
vt 0.142225 0.262254
vt 0.392225 0.262254
vt 0.250000 0.000002
vt 0.000007 0.000009
vt 0.075295 0.500000
vt 0.250000 0.616140
vt 0.131152 0.772197
vt 0.392225 0.262254
vt 0.441930 0.500000
vt 0.381152 0.772197
vt 1.000004 0.000009
vt 1.000000 0.500000
vt 0.968999 0.497539
vt 0.000004 0.000009
vt 0.000000 0.500000
vt 0.890995 0.235185
vt 1.000001 0.999994
vt 0.968999 0.497539
vt 0.999999 0.500000
vt 0.000001 0.999994
vt 0.000000 0.500000
vt 0.881152 0.772197
vt 0.250000 0.616140
vt 0.131152 0.772197
vt 0.256152 0.772197
vt 0.381152 0.772197
vt 0.250000 0.999998
vt 0.000004 0.999995
vt 0.499998 0.999995
vn 0.0011 -1.0000 -0.0008
vn -0.0014 1.0000 0.0010
vn 0.0007 -1.0000 -0.0011
vn -0.0011 1.0000 0.0008
vn 0.0010 -1.0000 -0.0009
vn 0.0010 -1.0000 -0.0007
vn -0.0011 1.0000 0.0014
vn 0.0012 -1.0000 -0.0010
vn 0.0012 -1.0000 -0.0007
vn 0.0012 -1.0000 -0.0008
vn 0.0011 -1.0000 -0.0007
vn 0.0011 -1.0000 -0.0009
vn 0.0009 -1.0000 -0.0009
vn -0.0010 1.0000 -0.0007
vn -0.0011 1.0000 -0.0007
vn -0.0010 1.0000 -0.0008
vn 0.0011 -1.0000 0.0008
usemtl texture.003
s 1
f 1/1/1 2/2/1 3/3/1
f 1/1/1 4/4/1 2/2/1
f 1/1/1 5/5/1 4/4/1
f 6/6/2 7/7/2 8/8/2
f 9/9/3 7/7/3 10/10/3
f 6/6/2 9/9/2 7/7/2
f 6/6/1 9/9/1 1/1/1
f 11/11/1 6/6/1 1/1/1
f 11/11/1 1/1/1 3/3/1
f 11/11/1 3/3/1 12/12/1
f 13/13/1 14/14/1 15/15/1
f 13/13/1 15/15/1 6/6/1
f 13/13/1 6/6/1 11/11/1
f 16/16/1 17/17/1 11/11/1
f 16/16/1 11/11/1 12/12/1
f 16/16/1 12/12/1 18/18/1
f 12/12/1 3/3/1 19/19/1
f 12/12/1 19/19/1 20/20/1
f 19/19/4 20/20/4 21/21/4
f 12/12/1 20/20/1 22/22/1
f 23/23/1 24/24/5 25/25/1
f 25/25/1 24/24/5 7/26/6
f 24/24/7 7/26/7 10/27/7
f 25/25/1 7/26/6 8/8/6
f 26/28/1 24/24/5 23/23/1
f 26/28/1 23/23/1 27/29/1
f 26/28/1 27/29/1 28/30/8
f 27/29/1 23/23/1 29/31/9
f 27/29/1 29/31/9 30/32/10
f 27/29/1 30/32/10 31/33/11
f 32/34/12 33/35/11 34/36/1
f 32/37/12 26/28/1 33/38/11
f 32/34/12 34/36/1 35/39/1
f 32/37/12 24/24/5 26/28/1
f 36/40/12 37/41/11 38/42/9
f 36/43/12 38/44/9 26/28/1
f 36/43/12 26/28/1 28/30/8
f 36/40/12 39/45/13 37/41/11
f 40/46/14 42/47/15 46/48/14 41/49/16
f 41/49/16 46/48/14 42/47/15 43/50/16
f 42/47/17 43/50/17 44/51/17
f 41/49/16 43/50/16 45/52/16
o Plane.001
v -1.937410 0.000447 0.840565
v -2.383137 0.000447 0.991959
v -1.664025 0.000447 0.001118
v -1.670194 0.000447 0.473468
vt 0.500000 0.500000
vt 0.500000 0.500000
vt 0.500000 0.500000
vt 0.500000 0.500000
vn -0.0000 -1.0000 -0.0000
usemtl None
s 1
f 47/53/18 48/54/18 49/55/18 50/56/18
o Plane.002
v -1.375645 -0.033348 1.619297
v -1.656139 -0.033348 1.241255
v -0.492809 -0.033348 1.622767
v -0.944400 -0.033348 1.761399
vt 0.500000 0.500000
vt 0.500000 0.500000
vt 0.500000 0.500000
vt 0.500000 0.500000
vn -0.0000 -1.0000 -0.0000
usemtl None.001
s 1
f 51/57/19 52/58/19 53/59/19 54/60/19
o Plane.003_Plane.001
v -3.836431 0.000447 -0.233792
v -3.566342 0.000447 -0.613895
v -3.565585 0.000447 0.613147
v -3.836452 0.000447 0.220261
vt 0.500000 0.500000
vt 0.500000 0.500000
vt 0.500000 0.500000
vt 0.500000 0.500000
vn -0.0000 -1.0000 -0.0000
usemtl None.006
s 1
f 55/61/20 56/62/20 57/63/20 58/64/20
o Plane.003_Plane.007
v 0.236175 0.000447 0.146084
v 0.240913 0.000447 0.616796
v -0.476037 0.000447 -0.375609
v -0.029200 0.000447 -0.222345
vt 0.500000 0.500000
vt 0.500000 0.500000
vt 0.500000 0.500000
vt 0.500000 0.500000
vn -0.0000 -1.0000 -0.0000
usemtl None.008
s 1
f 59/65/21 60/66/21 61/67/21 62/68/21
o Plane.009_Plane.015
v 0.968540 0.000447 -2.841102
v 1.414447 0.000447 -2.991965
v 0.694153 0.000447 -2.001983
v 0.700885 0.000447 -2.474325
vt 0.500000 0.500000
vt 0.500000 0.500000
vt 0.500000 0.500000
vt 0.500000 0.500000
vn -0.0000 -1.0000 -0.0000
usemtl None.016
s 1
f 63/69/22 64/70/22 65/71/22 66/72/22
o Plane.008_Plane.014
v 2.137641 0.000447 -1.212752
v 2.583912 0.000447 -1.362537
v 1.861229 0.000447 -0.374297
v 1.869102 0.000447 -0.846622
vt 0.500000 0.500000
vt 0.500000 0.500000
vt 0.500000 0.500000
vt 0.500000 0.500000
vn -0.0000 -1.0000 -0.0000
usemtl None.015
s 1
f 67/73/23 68/74/23 69/75/23 70/76/23
o Plane.007_Plane.013
v 1.142371 0.000447 -0.146819
v 0.696411 0.000447 0.003890
v 1.417046 0.000447 -0.985844
v 1.410151 0.000447 -0.513505
vt 0.500000 0.500000
vt 0.500000 0.500000
vt 0.500000 0.500000
vt 0.500000 0.500000
vn -0.0000 -1.0000 -0.0000
usemtl None.014
s 1
f 71/77/24 72/78/24 73/79/24 74/80/24
o Plane.006_Plane.012
v 4.951614 0.000447 -1.850667
v 4.502441 0.000447 -1.991510
v 5.667735 0.000447 -2.366983
v 5.383984 0.000447 -1.989308
vt 0.500000 0.500000
vt 0.500000 0.500000
vt 0.500000 0.500000
vt 0.500000 0.500000
vn -0.0000 -1.0000 -0.0000
usemtl None.013
s 1
f 75/81/25 76/82/25 77/83/25 78/84/25
o Plane.010_Plane.016
v 5.944048 0.000445 -0.758216
v 5.670568 0.000445 -0.375068
v 5.675896 0.000447 -1.599348
v 5.946667 0.000445 -1.212261
vt 0.500000 0.500000
vt 0.500000 0.500000
vt 0.500000 0.500000
vt 0.500000 0.500000
vn -0.0000 -1.0000 -0.0000
usemtl None.017
s 1
f 79/85/26 80/86/26 81/87/26 82/88/26
o Plane.011_Plane.017
v 2.301980 0.000447 -2.996688
v 2.584612 0.000447 -2.620240
v 1.419140 0.000447 -2.995158
v 1.869938 0.000447 -3.136344
vt 0.500000 0.500000
vt 0.500000 0.500000
vt 0.500000 0.500000
vt 0.500000 0.500000
vn -0.0000 -1.0000 -0.0000
usemtl None.018
s 1
f 83/89/27 84/90/27 85/91/27 86/92/27
o Plane.012_Plane.018
v 3.772732 0.000447 -0.514697
v 3.768646 0.000447 -0.985416
v 4.484221 0.000445 0.007982
v 4.037597 0.000447 -0.145901
vt 0.500000 0.500000
vt 0.500000 0.500000
vt 0.500000 0.500000
vt 0.500000 0.500000
vn -0.0000 -1.0000 0.0000
usemtl None.019
s 1
f 87/93/28 88/94/28 89/95/28 90/96/28
o Plane.013_Plane.019
v 3.046098 0.000447 0.768036
v 2.596346 0.000447 0.629052
v 3.760077 0.000447 0.248765
v 3.477890 0.000445 0.627609
vt 0.500000 0.500000
vt 0.500000 0.500000
vt 0.500000 0.500000
vt 0.500000 0.500000
vn -0.0000 -1.0000 -0.0000
usemtl None.020
s 1
f 91/97/29 92/98/29 93/99/29 94/100/29
o Plane.014_Plane.020
v 5.389135 0.000447 -3.988444
v 5.669072 0.000447 -3.609987
v 4.506306 0.000447 -3.993217
v 4.958101 0.000447 -4.131180
vt 0.500000 0.500000
vt 0.500000 0.500000
vt 0.500000 0.500000
vt 0.500000 0.500000
vn -0.0000 -1.0000 -0.0000
usemtl None.021
s 1
f 95/101/30 96/102/30 97/103/30 98/104/30
o Plane.015_Plane.021
v 4.044153 0.000447 -3.378400
v 3.770375 0.000447 -2.995465
v 3.776654 0.000447 -4.219741
v 4.047123 0.000447 -3.832444
vt 0.500000 0.500000
vt 0.500000 0.500000
vt 0.500000 0.500000
vt 0.500000 0.500000
vn -0.0000 -1.0000 -0.0000
usemtl None.022
s 1
f 99/105/31 100/106/31 101/107/31 102/108/31
o Plane.016_Plane.022
v 0.234861 0.000447 -2.134753
v 0.684592 0.000447 -1.995700
v -0.479195 0.000447 -1.615588
v -0.196951 0.000447 -1.994390
vt 0.500000 0.500000
vt 0.500000 0.500000
vt 0.500000 0.500000
vt 0.500000 0.500000
vn -0.0000 -1.0000 -0.0000
usemtl None.023
s 1
f 103/109/32 104/110/32 105/111/32 106/112/32
o Plane.017_Plane.023
v 2.151900 0.000447 -4.463050
v 2.598715 0.000447 -4.611206
v 1.872428 0.000447 -3.625611
v 1.882026 0.000447 -4.097904
vt 0.500000 0.500000
vt 0.500000 0.500000
vt 0.500000 0.500000
vt 0.500000 0.500000
vn -0.0000 -1.0000 -0.0000
usemtl None.024
s 1
f 107/113/33 108/114/33 109/115/33 110/116/33
o Plane.018_Plane.024
v -3.837082 0.000449 -2.232649
v -3.563715 0.000449 -2.615876
v -3.568681 0.000447 -1.391596
v -3.839565 0.000449 -1.778602
vt 0.500000 0.500000
vt 0.500000 0.500000
vt 0.500000 0.500000
vt 0.500000 0.500000
vn -0.0000 -1.0000 -0.0000
usemtl None.025
s 1
f 111/117/34 112/118/34 113/119/34 114/120/34
o Plane.019_Plane.025
v -2.840202 0.000449 -3.141155
v -2.391325 0.000449 -2.999374
v -3.557401 0.000449 -2.626338
v -3.272860 0.000449 -3.003418
vt 0.500000 0.500000
vt 0.500000 0.500000
vt 0.500000 0.500000
vt 0.500000 0.500000
vn -0.0000 -1.0000 -0.0000
usemtl None.026
s 1
f 115/121/35 116/122/35 117/123/35 118/124/35
o Plane.020_Plane.026
v -1.665466 0.000447 -2.477509
v -1.660727 0.000447 -2.006796
v -2.377678 0.000449 -2.999203
v -1.930841 0.000447 -2.845939
vt 0.500000 0.500000
vt 0.500000 0.500000
vt 0.500000 0.500000
vt 0.500000 0.500000
vn -0.0000 -1.0000 0.0000
usemtl None.027
s 1
f 119/125/36 120/126/36 121/127/36 122/128/36
