# Blender v3.2.1 OBJ File: 'dodecahedron_texture.blend'
# www.blender.org
mtllib dodecahedron_texture.mtl
o Solid
v 0.577350 0.577350 -0.577350
v 0.577350 -0.577350 -0.577350
v 0.577350 0.577350 0.577350
v 0.577350 -0.577350 0.577350
v -0.577350 0.577350 -0.577350
v -0.577350 -0.577350 -0.577350
v -0.577350 0.577350 0.577350
v -0.577350 -0.577350 0.577350
v 0.356822 0.000000 -0.934172
v -0.356822 0.000000 -0.934172
v 0.356822 0.000000 0.934172
v -0.356822 0.000000 0.934172
v 0.934172 0.356822 0.000000
v 0.934172 -0.356822 0.000000
v -0.934172 0.356822 0.000000
v -0.934172 -0.356822 0.000000
v 0.000000 0.934172 -0.356822
v 0.000000 0.934172 0.356822
v 0.000000 -0.934172 -0.356822
v 0.000000 -0.934172 0.356822
vt 0.654363 0.540900
vt 0.463123 0.993517
vt 0.541140 0.591436
vt 0.739135 0.793933
vt 0.666292 1.000852
vt 0.474467 0.291630
vt 0.560219 -0.001672
vt 0.697593 0.209861
vt 0.368773 0.928304
vt 0.358855 0.390605
vt 0.834380 0.258300
vt 0.850868 0.619277
vt 0.250202 0.215949
vt 0.195606 0.009030
vt 1.060113 0.985083
vt 0.219751 0.986045
vt 0.990144 0.687248
vt 0.161760 0.468982
vt 0.973168 0.134180
vt 1.195112 0.009030
vt 1.034219 0.424647
vt -0.009362 0.687248
vt 0.034713 0.424647
vt 0.060607 0.985083
vt -0.026338 0.134180
vn 0.0000 0.5257 -0.8507
vn 0.8507 0.0000 -0.5257
vn 0.5257 0.8507 -0.0000
vn 0.0000 -0.5257 -0.8507
vn 0.8507 0.0000 0.5257
vn -0.5257 0.8507 0.0000
vn -0.8507 0.0000 -0.5257
vn -0.0000 0.5257 0.8507
vn 0.5257 -0.8507 0.0000
vn -0.5257 -0.8507 0.0000
vn -0.8507 0.0000 0.5257
vn 0.0000 -0.5257 0.8507
usemtl texture
s off
f 9/1/1 17/2/1 1/3/1
f 9/1/1 10/4/1 5/5/1
f 13/6/2 9/1/2 1/3/2
f 13/6/2 14/7/2 2/8/2
f 17/2/3 13/6/3 1/3/3
f 17/2/3 18/9/3 3/10/3
f 2/8/4 10/4/4 9/1/4
f 2/8/4 19/11/4 6/12/4
f 3/10/5 14/7/5 13/6/5
f 3/10/5 11/13/5 4/14/5
f 5/5/6 18/9/6 17/2/6
f 5/5/6 15/15/6 7/16/6
f 6/12/7 5/5/7 10/4/7
f 6/12/7 16/17/7 15/15/7
f 12/18/8 18/9/8 7/16/8
f 12/18/8 11/13/8 3/10/8
f 20/19/9 14/7/9 4/20/9
f 20/19/9 19/11/9 2/8/9
f 16/17/10 20/19/10 8/21/10
f 16/17/10 6/12/10 19/11/10
f 12/18/11 16/22/11 8/23/11
f 12/18/11 7/16/11 15/24/11
f 20/25/12 12/18/12 8/23/12
f 20/25/12 4/14/12 11/13/12
f 9/1/1 5/5/1 17/2/1
f 13/6/2 2/8/2 9/1/2
f 17/2/3 3/10/3 13/6/3
f 2/8/4 6/12/4 10/4/4
f 3/10/5 4/14/5 14/7/5
f 5/5/6 7/16/6 18/9/6
f 6/12/7 15/15/7 5/5/7
f 12/18/8 3/10/8 18/9/8
f 20/19/9 2/8/9 14/7/9
f 16/17/10 19/11/10 20/19/10
f 12/18/11 15/24/11 16/22/11
f 20/25/12 11/13/12 12/18/12
